<svg width="20" height="19" viewBox="0 0 20 19" fill="none" xmlns="http://www.w3.org/2000/svg">
<path d="M18 0H2C0.9 0 0.00999999 0.9 0.00999999 2L0.00134228 17.5839C0.000847187 18.4751 1.07829 18.9217 1.70845 18.2916L3.70711 16.2929C3.89464 16.1054 4.149 16 4.41421 16H18C19.1 16 20 15.1 20 14V2C20 0.9 19.1 0 18 0ZM4 8C4 7.44772 4.44772 7 5 7H15C15.5523 7 16 7.44772 16 8V8C16 8.55228 15.5523 9 15 9H5C4.44772 9 4 8.55228 4 8V8ZM12 11C12 11.5523 11.5523 12 11 12H5C4.44772 12 4 11.5523 4 11V11C4 10.4477 4.44772 10 5 10H11C11.5523 10 12 10.4477 12 11V11ZM16 5C16 5.55228 15.5523 6 15 6H5C4.44772 6 4 5.55228 4 5V5C4 4.44772 4.44772 4 5 4H15C15.5523 4 16 4.44772 16 5V5Z" fill="#161616"/>
</svg>
 