<svg width="557" height="89" viewBox="0 0 557 89" fill="none" xmlns="http://www.w3.org/2000/svg">
<g filter="url(#filter0_d_42_2)">
<rect x="4" width="549" height="81" fill="#28D34A"/>
<rect x="4.5" y="0.5" width="548" height="80" stroke="#28D34A"/>
</g>
<path d="M65.6108 23.0909V58H57.7017L45.0881 39.6591H44.8835V58H35.4062V23.0909H43.4517L55.8608 41.3636H56.1335V23.0909H65.6108Z" fill="white"/>
<path d="M189.21 33.024H192.378V45.936H189.21V33.024ZM189.21 45.12H190.77C193.458 45.12 195.69 45.024 198.258 44.496L198.666 47.16C196.002 47.736 193.602 47.832 190.77 47.832H189.21V45.12ZM204.474 30.912H207.522V53.136H204.474V30.912ZM195.402 37.92H200.466V40.488H195.402V37.92ZM199.77 31.296H202.746V52.152H199.77V31.296ZM225.688 30.888H228.904V53.184H225.688V30.888ZM216.928 32.448C220.288 32.448 222.76 35.52 222.76 40.368C222.76 45.264 220.288 48.336 216.928 48.336C213.568 48.336 211.096 45.264 211.096 40.368C211.096 35.52 213.568 32.448 216.928 32.448ZM216.928 35.352C215.272 35.352 214.144 37.104 214.144 40.368C214.144 43.68 215.272 45.456 216.928 45.456C218.584 45.456 219.688 43.68 219.688 40.368C219.688 37.104 218.584 35.352 216.928 35.352ZM248.006 30.888H251.174V53.184H248.006V30.888ZM242.966 38.712H248.918V41.28H242.966V38.712ZM233.342 32.64H236.51V38.016H240.878V32.64H244.022V47.952H233.342V32.64ZM236.51 40.488V45.384H240.878V40.488H236.51ZM254.629 48.096H274.741V50.688H254.629V48.096ZM263.053 43.896H266.245V49.152H263.053V43.896ZM256.885 32.352H272.485V39.744H260.101V43.488H256.933V37.248H269.317V34.872H256.885V32.352ZM256.933 42.216H272.989V44.784H256.933V42.216ZM287.661 32.616H290.253V35.856C290.253 41.568 288.285 46.728 283.869 48.768L281.973 46.128C285.837 44.448 287.661 40.176 287.661 35.856V32.616ZM288.285 32.616H290.877V35.856C290.877 39.96 292.629 44.04 296.421 45.672L294.549 48.24C290.253 46.272 288.285 41.328 288.285 35.856V32.616ZM297.477 30.888H300.693V53.184H297.477V30.888ZM309.259 33.192H311.875V34.584C311.875 38.784 309.883 42.552 305.635 43.92L303.979 41.448C307.699 40.248 309.259 37.368 309.259 34.584V33.192ZM309.907 33.192H312.499V34.584C312.499 37.2 314.011 39.912 317.611 41.064L315.979 43.536C311.827 42.192 309.907 38.568 309.907 34.584V33.192ZM304.843 32.208H316.843V34.752H304.843V32.208ZM318.619 30.912H321.811V44.304H318.619V30.912ZM320.923 36.288H324.763V38.904H320.923V36.288ZM306.979 45.264H321.811V53.136H318.619V47.832H306.979V45.264ZM340.65 30.912H343.818V53.136H340.65V30.912ZM343.098 39.576H347.034V42.24H343.098V39.576ZM326.298 34.2H339.234V36.744H326.298V34.2ZM332.802 37.992C336.042 37.992 338.442 40.2 338.442 43.296C338.442 46.392 336.042 48.6 332.802 48.6C329.562 48.6 327.162 46.392 327.162 43.296C327.162 40.2 329.562 37.992 332.802 37.992ZM332.802 40.584C331.29 40.584 330.21 41.592 330.21 43.296C330.21 45 331.29 46.008 332.802 46.008C334.314 46.008 335.394 45 335.394 43.296C335.394 41.592 334.314 40.584 332.802 40.584ZM331.194 31.272H334.386V35.16H331.194V31.272ZM363.784 30.912H367V53.136H363.784V30.912ZM357.232 33.216H360.4C360.4 40.008 358.096 45.576 350.2 49.392L348.544 46.848C354.928 43.776 357.232 39.744 357.232 33.792V33.216ZM349.72 33.216H358.744V35.736H349.72V33.216Z" fill="white"/>
<defs>
<filter id="filter0_d_42_2" x="0" y="0" width="557" height="89" filterUnits="userSpaceOnUse" color-interpolation-filters="sRGB">
<feFlood flood-opacity="0" result="BackgroundImageFix"/>
<feColorMatrix in="SourceAlpha" type="matrix" values="0 0 0 0 0 0 0 0 0 0 0 0 0 0 0 0 0 0 127 0" result="hardAlpha"/>
<feOffset dy="4"/>
<feGaussianBlur stdDeviation="2"/>
<feComposite in2="hardAlpha" operator="out"/>
<feColorMatrix type="matrix" values="0 0 0 0 0 0 0 0 0 0 0 0 0 0 0 0 0 0 0.25 0"/>
<feBlend mode="normal" in2="BackgroundImageFix" result="effect1_dropShadow_42_2"/>
<feBlend mode="normal" in="SourceGraphic" in2="effect1_dropShadow_42_2" result="shape"/>
</filter>
</defs>
</svg>
